<svg xmlns="http://www.w3.org/2000/svg" viewBox="0 0 1024 1024"><path fill="#f18187" fill-rule="evenodd" d="M267 413.5c2.987 3.025 5.657 5.5 5.932 5.5.275 0-1.945-2.475-4.932-5.5s-5.657-5.5-5.932-5.5c-.275 0 1.945 2.475 4.932 5.5m300.873 2.409c-1.995.405-6.118 1.955-9.161 3.443l-5.533 2.708-3.59 3.973-3.589 3.973v6.148l2.813 2.813 2.814 2.814 5.789 1.201 5.788 1.202 3.648-.641c2.006-.353 5.857-1.354 8.558-2.225l4.909-1.585 4.232-4.231 4.231-4.231.68-3.1.681-3.1-1.321-2.735-1.322-2.735-3-1.704-3-1.705-5-.51-5-.509-3.627.736M311 459.5c3.543 3.575 6.667 6.5 6.942 6.5.275 0-2.399-2.925-5.942-6.5s-6.667-6.5-6.942-6.5c-.275 0 2.399 2.925 5.942 6.5m85.83 3.855c-2.019.63-5.648 2.539-8.064 4.243l-4.394 3.099-1.686 3.552-1.686 3.553v5.396l3.072 2.869 3.071 2.869 3.524.661 3.524.661 6.155-.499 6.154-.499 6.5-2.957 6.5-2.957 3.25-3.708 3.25-3.708v-2.014c0-1.109-.705-3.378-1.566-5.044l-1.567-3.029-4.183-1.9-4.184-1.899-7 .083-7 .083-3.67 1.145m77.92 16.368c1.788.222 4.712.222 6.5 0l3.25-.403h-13l3.25.403M552.382 612.5l.003 12 .356-6.289c.196-3.459.195-8.859-.003-12l-.36-5.711.004 12m-16.207 1.191L536 625.882l.75.467.75.467-.268-8.658c-.472-15.273-.878-16.988-1.057-4.467m7.593 12.034c1.797.222 4.497.218 6-.01l2.732-.415-6 .01-6 .01 3.268.405m89.482 42.024c17.462.154 46.037.154 63.5 0 17.462-.153 3.175-.278-31.75-.278s-49.212.125-31.75.278m-.5 20.001c18.288.152 48.212.152 66.5 0 18.288-.153 3.325-.278-33.25-.278s-51.538.125-33.25.278"/><path fill="#161414" fill-rule="evenodd" d="M646.5 247.07c-4.477.645-11.818 2.468-36.5 9.065-13.718 3.667-36.408 9.828-43.516 11.817-3.859 1.079-12.296 3.332-18.75 5.005-6.454 1.674-17.022 4.418-23.484 6.098-6.462 1.68-20.3 5.254-30.75 7.943-22.03 5.669-55.418 14.507-60.5 16.016-3.151.935-22.655 6.01-59.5 15.482-7.15 1.838-16.395 4.256-20.544 5.373-8.466 2.279-21.863 5.798-38.956 10.234a4028.028 4028.028 0 0 0-26 6.874c-19.782 5.307-30.204 8.044-53.496 14.047-10.945 2.821-21.117 5.759-22.605 6.528l-2.706 1.4-2.195 3.552-2.196 3.552-.459 3.722-.46 3.722 1.808 3.171c.995 1.744 9.717 11.419 19.383 21.5 9.665 10.081 19.246 20.204 21.291 22.496l3.718 4.167-5.792 1.572c-3.185.865-9.428 2.705-13.874 4.091l-8.083 2.518-2.071 2.243-2.071 2.242-.961 3.554-.961 3.553 5.254 20.947c2.89 11.52 6.625 26.121 8.3 32.446 1.674 6.325 5.566 21.329 8.647 33.342l5.603 21.842 1.522 2.322 1.521 2.322 3.343 1.586c4.666 2.214 6.354 2.055 21.05-1.986a6280.425 6280.425 0 0 1 31.49-8.532c10.175-2.727 19.29-5.201 20.256-5.497l1.756-.537 2.065 4.817c1.135 2.649 2.805 6.377 3.709 8.283l1.645 3.466 5.262 5.22 5.262 5.221 7.273 3.572 7.272 3.571 6 1.103 6 1.103 6.528-.596 6.528-.595 10.472-2.885c10.402-2.866 23.205-6.296 45.722-12.248 6.462-1.708 14.654-3.942 18.203-4.964 3.549-1.021 6.514-1.761 6.588-1.644 12.881 20.451 26.796 32.2 45.209 38.172l5.25 1.703v38.045l-4.434 4.932c-5.384 5.988-9.005 12.297-11.608 20.229L496 669.33v18.34l2.081 6.415c3.816 11.762 9.7 19.77 20.258 27.57l5.839 4.314 7.963 2.516 7.962 2.515h14.477l5.887-1.533c3.238-.844 8.635-2.845 11.994-4.448l6.106-2.915 6.46-6.052 6.46-6.052H731.89l.305 21.25.305 21.25 2.879 5.773 2.878 5.773 4.877 4.385 4.878 4.385 4.672 1.592 4.672 1.592h51.574l3.535-3.104 3.535-3.103V551.901l-1.456-2.816-1.456-2.815-3.445-1.635-3.445-1.635-23.849.006-23.849.005-3.677 1.022c-2.023.561-5.833 2.471-8.467 4.244l-4.789 3.223-3.206 4.225-3.205 4.226-1.578 5.428-1.578 5.429V645l-71.25-.042-71.25-.042-7.25-6.87-7.25-6.87V587.77l7.986-8.437 7.986-8.437 4.095-7.011 4.095-7.012 2.327-6.842c2.411-7.088 4.511-18.404 4.511-24.309v-3.394l10.25-2.811c13.771-3.777 46.053-12.329 83.25-22.054 14.727-3.85 15.955-4.311 22.162-8.323l5.949-3.845 3.242-3.898c1.783-2.143 4.638-6.803 6.344-10.355l3.103-6.457.469-9.043.468-9.042-4.1-16c-2.254-8.8-5.411-20.95-7.016-27-1.604-6.05-5.018-19.1-7.586-29-10.791-41.6-20.066-76.632-23.694-89.5l-2.96-10.5-2.592-4.437c-5.669-9.704-14.94-17.343-25.37-20.905l-5.419-1.851-5.5-.479-5.5-.479-5 .721m-28 30.006c-30.035 7.949-49.463 13.076-147.5 38.927l-72 18.986a6951.069 6951.069 0 0 0-27 7.169c-14.232 3.845-67.603 17.859-102.492 26.913-19.246 4.994-35.181 9.268-35.411 9.499-.23.23 4.042 5.033 9.494 10.674 10.072 10.421 62.03 64.84 77.581 81.256 10.81 11.411 9.338 7.968 18.831 44.057l8.139 30.943 2.448 3.758 2.449 3.757 4.054 2.938 4.055 2.937 5.441 1.217 5.441 1.218 10.235-2.659c5.629-1.462 17.66-4.641 26.735-7.064s38.55-10.274 65.5-17.446c26.95-7.173 59.125-15.782 71.5-19.133 35.94-9.731 60.285-16.191 111.5-29.587l48-12.555 3.741-2.449 3.742-2.449 2.701-4.082 2.701-4.082.395-5.659.394-5.66-6.996-26.5a16503.428 16503.428 0 0 1-15.163-58c-4.493-17.325-10.138-38.925-12.546-48-2.409-9.075-5.141-19.65-6.073-23.5-2.958-12.223-6.757-17.509-15.396-21.419l-4.5-2.037-5 .046-5 .046-30 7.94m-97.665 98.446-4.664 2.43-1.933 2.774c-2.619 3.76-4.243 8.833-4.216 13.173l.022 3.601 1.852 4 1.852 4 2.876 2.697c1.582 1.483 4.549 3.396 6.594 4.25l3.718 1.553 3.782-.01 3.782-.01 5.186-2.414 5.185-2.414 2.775-4.193 2.774-4.192.396-6.216.396-6.216-2.009-3.917c-2.507-4.891-5.664-7.877-10.435-9.87L535.064 373l-4.782.047-4.782.046-4.665 2.429m-114.198 28.943-3.862 1.377-2.842 2.722c-1.562 1.497-3.595 4.311-4.517 6.254l-1.676 3.532.047 5.214.047 5.214 1.494 2.861c2.086 3.996 6.506 7.977 10.89 9.808l3.718 1.553h8.64l4.404-2.25 4.404-2.25 3.013-3.787 3.013-3.787.401-6.296.401-6.295-2.097-4.109-2.097-4.11-3.259-2.42c-6.315-4.689-13.015-5.765-20.122-3.231m107.209 30.561-1.654.966-3.031 6.479-3.032 6.479-4.565 4.436-4.564 4.436-4.75 2.339-4.75 2.339-10-.009-10-.008-4.5-2.379c-2.475-1.308-5.573-3.217-6.885-4.241L453.73 454h-6.585l-2.072 2.635L443 459.27v3.724l3.486 3.859 3.486 3.859 6.329 3.115 6.328 3.116 7.172 1.23 7.171 1.229 7.609-1.096 7.61-1.096 7.469-3.692 7.47-3.692 5.318-5.318 5.319-5.318 3.616-7.229 3.617-7.23v-5.822l-2.455-2.454-2.454-2.455-2.296.03c-1.262.017-3.039.465-3.949.996m-261.019 15.3c-6.421 1.746-11.931 3.434-12.246 3.753l-.572.579 6.91 26.421c13.377 51.149 15.343 58.428 15.978 59.14l.641.719 11.981-3.365 11.981-3.365-.191-2.62c-.149-2.055-18.665-75.389-20.915-82.838-.641-2.123.542-2.261-13.567 1.576M296 477.472c0 1.74 12.429 49.147 13.082 49.897l.756.869 5.17-1.24 5.169-1.24-.678-3.629c-.372-1.996-2.222-9.437-4.111-16.536l-3.433-12.908-7.175-7.592c-6.966-7.373-8.78-8.947-8.78-7.621m271.5 54.047c-6.6 1.842-26.85 7.231-45 11.977s-33.788 8.857-34.75 9.134l-1.75.505v1.191c0 1.81 10.85 12.507 16.5 16.269l5 3.328 6.773 2.539 6.773 2.538 9.727-.021 9.727-.021 6.726-2.374 6.726-2.374 6.562-4.683 6.563-4.683 4.041-5.113C577.91 551.139 583 538.967 583 531.318V528l-1.75.086c-.962.047-7.15 1.592-13.75 3.433m192 34.629c-1.1.612-2.777 2.066-3.728 3.232l-1.728 2.12-.022 88.234-.022 88.234 2.916 3.266 2.916 3.266H794.5v-189l-16.5-.233-16.5-.232-2 1.113m-217.25 34.186-6.25 1.017v25.911l3.75-.62c2.063-.341 5.888-.625 8.5-.631L553 626v-27l-2.25.159c-1.237.087-5.062.616-8.5 1.175M541 648.871c-1.375.455-4.3 1.757-6.5 2.893l-4 2.067-3.701 3.834-3.7 3.835-2.056 4.659c-1.131 2.563-2.341 6.739-2.69 9.281l-.633 4.621 1.767 6.528 1.767 6.527 4.853 5.31 4.853 5.31 5.27 2.274 5.27 2.273 6.73.006 6.73.005 6.478-3.189 6.478-3.189 3.566-4.166 3.566-4.166 2.028-6.542 2.029-6.542-.658-5-.659-5-2.001-4.714-2.002-4.714-4.789-4.479-4.789-4.48-3.854-1.624-3.853-1.624-6.5-.41-6.5-.41-2.5.826m58.716 28.378.216 10.251 66.034.257 66.034.257V667l-66.25-.001H599.5l.216 10.25"/><path fill="#faf8f8" fill-rule="evenodd" d="M639 272.411c-9.821 2.731-82.548 21.88-130 34.228a11461.84 11461.84 0 0 0-67.5 17.84c-19.25 5.161-55.7 14.787-81 21.392-25.3 6.606-63.076 16.537-83.947 22.069-20.871 5.533-38.796 10.06-39.833 10.06h-1.887l.334.927c.183.51 18.333 19.72 40.333 42.688 43.735 45.658 56.5 59.155 56.5 59.737 0 .21 3.622 14.229 8.05 31.152l8.049 30.77 1.859 3.613c2.212 4.299 6.281 8.248 10.905 10.583l3.362 1.698 5.138.511 5.137.512 28-7.545c15.4-4.15 39.025-10.459 52.5-14.02 23.838-6.301 90.594-24.134 132-35.264 37.238-10.009 46.179-12.375 81-21.435 43.472-11.311 44.534-11.776 48.505-21.284l1.611-3.857.031-4.643.032-4.643-18.668-71.5c-10.267-39.325-20.009-76.442-21.648-82.483l-2.98-10.982-2.523-3.307c-1.387-1.819-4.357-4.521-6.601-6.006l-4.079-2.699-7.09-.238-7.09-.238-8.5 2.364M520.88 374.794l-5.349 2.794-2.817 4.557-2.817 4.556-.029 6.079-.029 6.078 1.683 3.548 1.684 3.547 3.84 3.47 3.841 3.469 4.235 1.141 4.236 1.14 4.071-.616 4.071-.617 3.958-2.229 3.959-2.228 2.843-4.046 2.844-4.046.573-5.552.573-5.551-1.231-3.73-1.231-3.73-3.135-3.571-3.136-3.571-4.008-1.821-4.009-1.821-4.636-.022-4.636-.022-5.348 2.794m-111.886 28.089c-7.345 2.384-11.915 6.291-14.446 12.349L393 418.936l.022 4.282.022 4.282 1.821 4.009 1.821 4.008 3.63 3.187 3.629 3.187 3.778 1.049c4.855 1.348 7.644 1.33 12.355-.081l3.809-1.142 3.686-3.038 3.685-3.038 1.849-4.07 1.849-4.071.022-4.128.022-4.128-1.409-3.372c-.775-1.855-2.393-4.622-3.595-6.15l-2.185-2.778-3.902-1.991-3.903-1.99-4.253-.447-4.253-.447-2.506.814m158.879 13.026c-1.995.405-6.118 1.955-9.161 3.443l-5.533 2.708-3.59 3.973-3.589 3.973v6.148l2.813 2.813 2.814 2.814 5.789 1.201 5.788 1.202 3.648-.641c2.006-.353 5.857-1.354 8.558-2.225l4.909-1.585 4.232-4.231 4.231-4.231.68-3.1.681-3.1-1.321-2.735-1.322-2.735-3-1.704-3-1.705-5-.51-5-.509-3.627.736m-53.542 18.071-2.17.896-3.202 6.71-3.202 6.71-4.432 4.432-4.432 4.432-5.557 2.544-5.558 2.544-6.139.483-6.139.484-5.668-2.003-5.668-2.003-4.512-3.104L453.14 453h-5.231l-2.454 2.455-2.455 2.454v6.858l4.127 3.728 4.126 3.729 6.128 2.867 6.128 2.868 5.382 1.02c10.825 2.053 20.304.558 31.742-5.006l6.133-2.983 6.174-6.245 6.174-6.245 2.969-6.025c1.633-3.313 3.229-7.622 3.546-9.575l.576-3.55-2.353-2.637-2.352-2.638-2.5-.495-2.5-.496-2.169.896M252.5 451.206c-6.05 1.651-11.132 3.124-11.293 3.273-.58.54 21.171 84.233 22.145 85.206.247.247 5.669-.987 12.048-2.743l11.6-3.191v-1.333c0-1.146-6.098-24.986-18.376-71.838l-3.124-11.92-1-.227c-.55-.125-5.95 1.123-12 2.773m144.33 12.149c-2.019.63-5.648 2.539-8.064 4.243l-4.394 3.099-1.686 3.552-1.686 3.553v5.396l3.072 2.869 3.071 2.869 3.524.661 3.524.661 6.155-.499 6.154-.499 6.5-2.957 6.5-2.957 3.25-3.708 3.25-3.708v-2.014c0-1.109-.705-3.378-1.566-5.044l-1.567-3.029-4.183-1.9-4.184-1.899-7 .083-7 .083-3.67 1.145M297 478.659c0 1.053 12.109 47.708 12.58 48.47l.41.663 4.203-1.241 4.204-1.241.364-1.092c.361-1.083-6.481-28.673-7.652-30.853-.951-1.774-14.109-15.487-14.109-14.706m248.5 59.395c-18.15 4.889-38.625 10.322-45.5 12.074-6.875 1.752-12.839 3.477-13.254 3.833l-.755.648 6.325 6.514 6.325 6.514 5.93 3.577c3.261 1.968 8.179 4.351 10.929 5.296l5 1.718 6.734.519 6.734.519 6.266-1.222 6.266-1.223 6.5-3.414c3.575-1.877 8.611-5.225 11.192-7.438l4.692-4.025 4.419-6.722c5.04-7.666 7.4-13.436 8.578-20.972l.82-5.25-2.1.083c-1.156.046-16.951 4.083-35.101 8.971m214.713 28.453-3.288 1.428-1.462 3.5-1.463 3.501V747.2l3.4 3.4 3.4 3.4H794V565l-15.25.039-15.25.039-3.287 1.429M544.25 600.914l-7.25 1.482v23.854l3.125-.625c1.719-.344 5.206-.625 7.75-.625h4.625l-.187-12.603c-.102-6.932-.327-12.685-.5-12.785-.172-.099-3.576.486-7.563 1.302m-6.245 49.83-4.495 1.586-5.579 5.585-5.579 5.585-1.676 4.928-1.676 4.928V683.925l1.983 5.287 1.983 5.288 2.494 2.682c1.372 1.474 3.967 3.797 5.767 5.161l3.273 2.479 5.917 1.709 5.917 1.708 4.783-.566 4.783-.567 5.482-2.593 5.482-2.594 3.212-3.659c1.767-2.012 4.134-5.706 5.261-8.209l2.048-4.551-.01-7-.01-7-2.29-5.214-2.29-5.214-4.769-4.46-4.769-4.461-5.305-1.576-5.305-1.575-5.069.079-5.068.079-4.495 1.586m62.457 26.75.038 9.494 65.562.006 65.562.006.071-9.5.07-9.5H600.423l.039 9.494"/><path fill="#1b488e" fill-rule="evenodd" d="M0 512.001v512.001l512.25-.251 512.25-.251.251-511.75.251-511.75H0v512.001m.496.499c0 281.6.114 396.651.254 255.668.14-140.982.14-371.382 0-512C.61 115.551.496 230.9.496 512.5M646.5 247.07c-4.477.645-11.818 2.468-36.5 9.065-13.718 3.667-36.408 9.828-43.516 11.817-3.859 1.079-12.296 3.332-18.75 5.005-6.454 1.674-17.022 4.418-23.484 6.098-6.462 1.68-20.3 5.254-30.75 7.943-22.03 5.669-55.418 14.507-60.5 16.016-3.151.935-22.655 6.01-59.5 15.482-7.15 1.838-16.395 4.256-20.544 5.373-8.466 2.279-21.863 5.798-38.956 10.234a4028.028 4028.028 0 0 0-26 6.874c-19.782 5.307-30.204 8.044-53.496 14.047-10.945 2.821-21.117 5.759-22.605 6.528l-2.706 1.4-2.195 3.552-2.196 3.552-.459 3.722-.46 3.722 1.808 3.171c.995 1.744 9.717 11.419 19.383 21.5 9.665 10.081 19.246 20.204 21.291 22.496l3.718 4.167-5.792 1.572c-3.185.865-9.428 2.705-13.874 4.091l-8.083 2.518-2.071 2.243-2.071 2.242-.961 3.554-.961 3.553 5.254 20.947c2.89 11.52 6.625 26.121 8.3 32.446 1.674 6.325 5.566 21.329 8.647 33.342l5.603 21.842 1.522 2.322 1.521 2.322 3.343 1.586c4.666 2.214 6.354 2.055 21.05-1.986a6280.425 6280.425 0 0 1 31.49-8.532c10.175-2.727 19.29-5.201 20.256-5.497l1.756-.537 2.065 4.817c1.135 2.649 2.805 6.377 3.709 8.283l1.645 3.466 5.262 5.22 5.262 5.221 7.273 3.572 7.272 3.571 6 1.103 6 1.103 6.528-.596 6.528-.595 10.472-2.885c10.402-2.866 23.205-6.296 45.722-12.248 6.462-1.708 14.654-3.942 18.203-4.964 3.549-1.021 6.514-1.761 6.588-1.644 12.881 20.451 26.796 32.2 45.209 38.172l5.25 1.703v38.045l-4.434 4.932c-5.384 5.988-9.005 12.297-11.608 20.229L496 669.33v18.34l2.081 6.415c3.816 11.762 9.7 19.77 20.258 27.57l5.839 4.314 7.963 2.516 7.962 2.515h14.477l5.887-1.533c3.238-.844 8.635-2.845 11.994-4.448l6.106-2.915 6.46-6.052 6.46-6.052H731.89l.305 21.25.305 21.25 2.879 5.773 2.878 5.773 4.877 4.385 4.878 4.385 4.672 1.592 4.672 1.592h51.574l3.535-3.104 3.535-3.103V551.901l-1.456-2.816-1.456-2.815-3.445-1.635-3.445-1.635-23.849.006-23.849.005-3.677 1.022c-2.023.561-5.833 2.471-8.467 4.244l-4.789 3.223-3.206 4.225-3.205 4.226-1.578 5.428-1.578 5.429V645l-71.25-.042-71.25-.042-7.25-6.87-7.25-6.87V587.77l7.986-8.437 7.986-8.437 4.095-7.011 4.095-7.012 2.327-6.842c2.411-7.088 4.511-18.404 4.511-24.309v-3.394l10.25-2.811c13.771-3.777 46.053-12.329 83.25-22.054 14.727-3.85 15.955-4.311 22.162-8.323l5.949-3.845 3.242-3.898c1.783-2.143 4.638-6.803 6.344-10.355l3.103-6.457.469-9.043.468-9.042-4.1-16c-2.254-8.8-5.411-20.95-7.016-27-1.604-6.05-5.018-19.1-7.586-29-10.791-41.6-20.066-76.632-23.694-89.5l-2.96-10.5-2.592-4.437c-5.669-9.704-14.94-17.343-25.37-20.905l-5.419-1.851-5.5-.479-5.5-.479-5 .721M279 426.5c2.987 3.025 5.657 5.5 5.932 5.5.275 0-1.945-2.475-4.932-5.5s-5.657-5.5-5.932-5.5c-.275 0 1.945 2.475 4.932 5.5m19.5 20.5c3.266 3.3 6.162 6 6.437 6 .275 0-2.171-2.7-5.437-6-3.266-3.3-6.162-6-6.437-6-.275 0 2.171 2.7 5.437 6m23 24c3.266 3.3 6.162 6 6.437 6 .275 0-2.171-2.7-5.437-6-3.266-3.3-6.162-6-6.437-6-.275 0 2.171 2.7 5.437 6m472.855 128.5-.006 9 .382-4.22c.209-2.321.212-6.371.005-9l-.376-4.78-.005 9m-.019 24.5v7.5l.392-3.75c.216-2.062.216-5.437 0-7.5l-.392-3.75v7.5m-.016 70v6.5l.403-3.25c.222-1.788.222-4.712 0-6.5l-.403-3.25v6.5m0 24v6.5l.403-3.25c.222-1.788.222-4.712 0-6.5l-.403-3.25v6.5m-.32 34.833V754l-15.75.222-15.75.222 15.423.305 15.423.305 1.01-1.01 1.011-1.011-.684-.683-.683-.683v1.166"/></svg>
